<?xml version="1.0" encoding="UTF-8"?>
<!--
  SixFour — MOTION / TEMPORAL data-fill mockup.
  Canvas = 400x872 pt = the screen (cell atom = 4 pt; 100 cols x 218 rows).
  Rounded corners. Faint 4pt grid drawn. Centred widgets to scale:
    Field64  64x64 cells (256 pt) @ col 18,row 22  -> x=72  y=88
    Palette16 16x16 cells (64 pt) @ col 42,row 145 -> x=168 y=580
  Motion-lens fills shown in the empty regions, each a band of data-coloured cells.
-->
<svg xmlns="http://www.w3.org/2000/svg" width="400" height="872" viewBox="0 0 400 872">
  <defs>
    <clipPath id="screen"><rect x="0" y="0" width="400" height="872" rx="44" ry="44"/></clipPath>
  </defs>
  <g clip-path="url(#screen)">
    <rect x="0" y="0" width="400" height="872" fill="#0a0a0e"/>

    <!-- faint 4pt cell grid -->
    <g stroke="#1b1b22" stroke-width="0.5">
      <!-- verticals every 4pt -->
      <g id="vlines">
        <line x1="0" y1="0" x2="0" y2="872"/>
      </g>
    </g>
    <g stroke="#15151b" stroke-width="0.4">
      <!-- draw grid programmatically-looking: every 16pt major, 4pt minor approximated by groups -->
    </g>
    <!-- minor grid: 4pt -->
    <g stroke="#141419" stroke-width="0.3">
      <!-- horizontal 4pt lines -->
      <g>
        <!-- generated set: every 4 pt 0..872 -->
        <line x1="0" x2="400" y1="0"  y2="0"/><line x1="0" x2="400" y1="40" y2="40"/>
        <line x1="0" x2="400" y1="80" y2="80"/><line x1="0" x2="400" y1="120" y2="120"/>
        <line x1="0" x2="400" y1="160" y2="160"/><line x1="0" x2="400" y1="200" y2="200"/>
        <line x1="0" x2="400" y1="240" y2="240"/><line x1="0" x2="400" y1="280" y2="280"/>
        <line x1="0" x2="400" y1="320" y2="320"/><line x1="0" x2="400" y1="360" y2="360"/>
        <line x1="0" x2="400" y1="400" y2="400"/><line x1="0" x2="400" y1="440" y2="440"/>
        <line x1="0" x2="400" y1="480" y2="480"/><line x1="0" x2="400" y1="520" y2="520"/>
        <line x1="0" x2="400" y1="560" y2="560"/><line x1="0" x2="400" y1="600" y2="600"/>
        <line x1="0" x2="400" y1="640" y2="640"/><line x1="0" x2="400" y1="680" y2="680"/>
        <line x1="0" x2="400" y1="720" y2="720"/><line x1="0" x2="400" y1="760" y2="760"/>
        <line x1="0" x2="400" y1="800" y2="800"/><line x1="0" x2="400" y1="840" y2="840"/>
      </g>
      <g>
        <line y1="0" y2="872" x1="0"  x2="0"/><line y1="0" y2="872" x1="40" x2="40"/>
        <line y1="0" y2="872" x1="80" x2="80"/><line y1="0" y2="872" x1="120" x2="120"/>
        <line y1="0" y2="872" x1="160" x2="160"/><line y1="0" y2="872" x1="200" x2="200"/>
        <line y1="0" y2="872" x1="240" x2="240"/><line y1="0" y2="872" x1="280" x2="280"/>
        <line y1="0" y2="872" x1="320" x2="320"/><line y1="0" y2="872" x1="360" x2="360"/>
        <line y1="0" y2="872" x1="400" x2="400"/>
      </g>
    </g>

    <!-- ============ TOP: FILMSTRIP TIMELINE (rows 0-21, above Field64) ============ -->
    <!-- 64 frame thumbnails as a 2-row x 32-col strip of dominant-colour cells.
         Region: x=72..328 (cols 18-81), y=8..40 (rows 2-9). Each cell 8pt here for legibility. -->
    <g id="filmstrip">
      <rect x="72" y="8" width="256" height="32" fill="#111118"/>
      <!-- 64 dominant-frame swatches (2 rows of 32) -->
      <g>
        <rect x="72"  y="8"  width="8" height="16" fill="#3a4a6b"/><rect x="80" y="8" width="8" height="16" fill="#42506e"/>
        <rect x="88"  y="8"  width="8" height="16" fill="#4a5670"/><rect x="96" y="8" width="8" height="16" fill="#566078"/>
        <rect x="104" y="8"  width="8" height="16" fill="#637085"/><rect x="112" y="8" width="8" height="16" fill="#727f93"/>
        <rect x="120" y="8"  width="8" height="16" fill="#8290a3"/><rect x="128" y="8" width="8" height="16" fill="#94a1b2"/>
        <rect x="136" y="8"  width="8" height="16" fill="#a6b2c0"/><rect x="144" y="8" width="8" height="16" fill="#b3bdc9"/>
        <rect x="152" y="8"  width="8" height="16" fill="#c0c8d2"/><rect x="160" y="8" width="8" height="16" fill="#c9d0d9"/>
        <rect x="168" y="8"  width="8" height="16" fill="#d2d8df"/><rect x="176" y="8" width="8" height="16" fill="#d9dee4"/>
        <rect x="184" y="8"  width="8" height="16" fill="#dfe3e8"/><rect x="192" y="8" width="8" height="16" fill="#e3e7eb"/>
        <rect x="200" y="8"  width="8" height="16" fill="#e6e9ed"/><rect x="208" y="8" width="8" height="16" fill="#e3e2dd"/>
        <rect x="216" y="8"  width="8" height="16" fill="#ddd9cd"/><rect x="224" y="8" width="8" height="16" fill="#d3ccb8"/>
        <rect x="232" y="8"  width="8" height="16" fill="#c6bca0"/><rect x="240" y="8" width="8" height="16" fill="#b3a684"/>
        <rect x="248" y="8"  width="8" height="16" fill="#9d8d68"/><rect x="256" y="8" width="8" height="16" fill="#87764f"/>
        <rect x="264" y="8"  width="8" height="16" fill="#70603c"/><rect x="272" y="8" width="8" height="16" fill="#5b4d2e"/>
        <rect x="280" y="8"  width="8" height="16" fill="#4a3f25"/><rect x="288" y="8" width="8" height="16" fill="#3d341f"/>
        <rect x="296" y="8"  width="8" height="16" fill="#332b1a"/><rect x="304" y="8" width="8" height="16" fill="#2b2416"/>
        <rect x="312" y="8"  width="8" height="16" fill="#241e13"/><rect x="320" y="8" width="8" height="16" fill="#1e1910"/>
        <!-- row 2 (frames 32-63) -->
        <rect x="72"  y="24" width="8" height="16" fill="#1a160e"/><rect x="80" y="24" width="8" height="16" fill="#221b12"/>
        <rect x="88"  y="24" width="8" height="16" fill="#2d2416"/><rect x="96" y="24" width="8" height="16" fill="#3a2f1d"/>
        <rect x="104" y="24" width="8" height="16" fill="#4a3d26"/><rect x="112" y="24" width="8" height="16" fill="#5d4d32"/>
        <rect x="120" y="24" width="8" height="16" fill="#726040"/><rect x="128" y="24" width="8" height="16" fill="#897452"/>
        <rect x="136" y="24" width="8" height="16" fill="#9f8a67"/><rect x="144" y="24" width="8" height="16" fill="#b4a07e"/>
        <rect x="152" y="24" width="8" height="16" fill="#c5b596"/><rect x="160" y="24" width="8" height="16" fill="#d2c6ac"/>
        <rect x="168" y="24" width="8" height="16" fill="#dbd2bd"/><rect x="176" y="24" width="8" height="16" fill="#e0dac9"/>
        <rect x="184" y="24" width="8" height="16" fill="#dfe0d8"/><rect x="192" y="24" width="8" height="16" fill="#d4dbdd"/>
        <rect x="200" y="24" width="8" height="16" fill="#c2cdd6"/><rect x="208" y="24" width="8" height="16" fill="#aab9c8"/>
        <rect x="216" y="24" width="8" height="16" fill="#90a2b6"/><rect x="224" y="24" width="8" height="16" fill="#788ca4"/>
        <rect x="232" y="24" width="8" height="16" fill="#647892"/><rect x="240" y="24" width="8" height="16" fill="#556680"/>
        <rect x="248" y="24" width="8" height="16" fill="#4a5870"/><rect x="256" y="24" width="8" height="16" fill="#434f66"/>
        <rect x="264" y="24" width="8" height="16" fill="#3e495d"/><rect x="272" y="24" width="8" height="16" fill="#3a4455"/>
        <rect x="280" y="24" width="8" height="16" fill="#37404f"/><rect x="288" y="24" width="8" height="16" fill="#343c4a"/>
        <rect x="296" y="24" width="8" height="16" fill="#323945"/><rect x="304" y="24" width="8" height="16" fill="#303641"/>
        <rect x="312" y="24" width="8" height="16" fill="#2e333d"/><rect x="320" y="24" width="8" height="16" fill="#2c3039"/>
      </g>
      <!-- cursor marker (frame at cursor) -->
      <rect x="152" y="6" width="8" height="36" fill="none" stroke="#46c85a" stroke-width="1.5"/>
      <text x="72" y="50" font-family="monospace" font-size="7" fill="#8a8a98">FILMSTRIP  64 frames -> 2x32 dominant-colour cells (8pt)  |  ACT III/V  rows 2-9, cols 18-81</text>
    </g>

    <!-- ============ FIELD64 (the 64x64 preview/GIFA hero) ============ -->
    <rect x="72" y="88" width="256" height="256" fill="#181820" stroke="#2a2a34" stroke-width="1"/>
    <!-- suggest a face/scene with a few cell blocks -->
    <g opacity="0.85">
      <rect x="120" y="120" width="160" height="160" fill="#5a6478"/>
      <rect x="150" y="150" width="100" height="90" fill="#8a93a4"/>
      <rect x="170" y="200" width="60" height="40" fill="#3a3f4d"/>
    </g>
    <text x="72" y="358" font-family="monospace" font-size="7" fill="#8a8a98">FIELD64  64x64 cells = 256pt  @ col18,row22  (centred)  live preview / GIFA playback</text>

    <!-- ============ RIGHT RAIL: PER-FRAME DIVERSITY SPARK-COLUMN (cols 82-99) ============ -->
    <!-- 64-tall x 4-wide column of cells; cell brightness = effectiveDim of that frame's palette.
         Region x=332..348 (cols 83-86), y=88..344 (rows 22-85, 64 cells x 4pt). -->
    <g id="diversity-rail">
      <rect x="332" y="88" width="16" height="256" fill="#101016"/>
      <!-- 64 cells, height 4pt each, width modulated like a bar -->
      <g fill="#46c85a">
        <rect x="344" y="88"  width="4" height="4"/><rect x="340" y="92" width="8" height="4"/>
        <rect x="336" y="96"  width="12" height="4"/><rect x="338" y="100" width="10" height="4"/>
        <rect x="334" y="104" width="14" height="4"/><rect x="332" y="108" width="16" height="4"/>
        <rect x="334" y="112" width="14" height="4"/><rect x="336" y="116" width="12" height="4"/>
        <rect x="338" y="120" width="10" height="4"/><rect x="340" y="124" width="8" height="4"/>
        <rect x="336" y="128" width="12" height="4"/><rect x="332" y="132" width="16" height="4"/>
        <rect x="333" y="136" width="15" height="4"/><rect x="335" y="140" width="13" height="4"/>
        <rect x="338" y="144" width="10" height="4"/><rect x="341" y="148" width="7" height="4"/>
        <rect x="343" y="152" width="5" height="4"/><rect x="340" y="156" width="8" height="4"/>
        <rect x="337" y="160" width="11" height="4"/><rect x="334" y="164" width="14" height="4"/>
        <rect x="332" y="168" width="16" height="4"/><rect x="334" y="172" width="14" height="4"/>
        <rect x="337" y="176" width="11" height="4"/><rect x="339" y="180" width="9" height="4"/>
        <rect x="341" y="184" width="7" height="4"/><rect x="338" y="188" width="10" height="4"/>
        <rect x="335" y="192" width="13" height="4"/><rect x="333" y="196" width="15" height="4"/>
        <rect x="332" y="200" width="16" height="4"/><rect x="335" y="204" width="13" height="4"/>
        <rect x="338" y="208" width="10" height="4"/><rect x="342" y="212" width="6" height="4"/>
      </g>
      <text x="332" y="356" font-family="monospace" font-size="6" fill="#8a8a98" transform="rotate(90 332 356)">DIVERSITY RAIL  64 frames effectiveDim  cols 83-86</text>
    </g>

    <!-- ============ MIDDLE BAND: MOTION HEATMAP (rows 86-144, between Field64 and Palette16) ============ -->
    <!-- 64x32 cell heatmap: per-pixel temporal change magnitude (index-cube frame-to-frame delta), summed.
         Region x=72..328 (64 cells x 4pt = 256), y=360..488 (32 rows x 4pt = 128). -->
    <g id="motion-heatmap">
      <rect x="72" y="360" width="256" height="128" fill="#0d0d12"/>
      <!-- a moody radial-ish heat blob built from rects -->
      <g>
        <rect x="120" y="392" width="120" height="64" fill="#2a1a3a"/>
        <rect x="140" y="400" width="90"  height="48" fill="#5a2050"/>
        <rect x="160" y="408" width="60"  height="32" fill="#a8305a"/>
        <rect x="176" y="412" width="36"  height="24" fill="#e85a3a"/>
        <rect x="186" y="416" width="18"  height="16" fill="#f5b13a"/>
        <!-- scattered secondary motion -->
        <rect x="96"  y="376" width="20" height="12" fill="#4a2040"/>
        <rect x="276" y="452" width="28" height="16" fill="#6a2548"/>
        <rect x="248" y="368" width="16" height="10" fill="#3a1c34"/>
      </g>
      <text x="72" y="500" font-family="monospace" font-size="7" fill="#8a8a98">MOTION HEATMAP  64x32 cells  per-pixel temporal change (indexCube delta)  ACT V  rows 90-121</text>
    </g>

    <!-- ============ LEFT RAIL: REVERSE-TRAIL TICKER (cols 0-17) — ACT II ============ -->
    <!-- During capture: a vertical column of cells lit in REVERSE order as frames arrive.
         Region x=8..40 (cols 2-9), y=88..344 (64 cells x 4pt). Shows backward fill. -->
    <g id="reverse-trail">
      <rect x="8" y="88" width="32" height="256" fill="#101016"/>
      <g fill="#46c85a">
        <!-- filled from BOTTOM up (reverse cursor) -->
        <rect x="8" y="216" width="32" height="4" opacity="0.3"/>
        <rect x="8" y="220" width="32" height="4" opacity="0.35"/>
        <rect x="8" y="224" width="32" height="4" opacity="0.4"/>
        <rect x="8" y="228" width="32" height="4" opacity="0.45"/>
        <rect x="8" y="232" width="32" height="4" opacity="0.5"/>
        <rect x="8" y="236" width="32" height="4" opacity="0.55"/>
        <rect x="8" y="240" width="32" height="4" opacity="0.6"/>
        <rect x="8" y="244" width="32" height="4" opacity="0.65"/>
        <rect x="8" y="248" width="32" height="4" opacity="0.7"/>
        <rect x="8" y="252" width="32" height="4" opacity="0.75"/>
        <rect x="8" y="256" width="32" height="4" opacity="0.8"/>
        <rect x="8" y="260" width="32" height="4" opacity="0.85"/>
        <rect x="8" y="264" width="32" height="4" opacity="0.9"/>
        <rect x="8" y="268" width="32" height="4" opacity="0.95"/>
        <rect x="8" y="272" width="32" height="4" opacity="1"/>
        <rect x="8" y="276" width="32" height="4" fill="#9affb0"/>
      </g>
      <text x="8" y="356" font-family="monospace" font-size="6" fill="#8a8a98" transform="rotate(90 8 356)">REVERSE TRAIL  capture cursor  cols 2-9</text>
    </g>

    <!-- ============ PALETTE16 (the shutter / per-frame palette) ============ -->
    <rect x="168" y="580" width="64" height="64" fill="#181820" stroke="#46c85a" stroke-width="1.5"/>
    <g>
      <rect x="168" y="580" width="16" height="16" fill="#c94a4a"/><rect x="184" y="580" width="16" height="16" fill="#d98a4a"/>
      <rect x="200" y="580" width="16" height="16" fill="#d9c84a"/><rect x="216" y="580" width="16" height="16" fill="#8ac94a"/>
      <rect x="168" y="596" width="16" height="16" fill="#4ac98a"/><rect x="184" y="596" width="16" height="16" fill="#4ac9c9"/>
      <rect x="200" y="596" width="16" height="16" fill="#4a8ac9"/><rect x="216" y="596" width="16" height="16" fill="#6a4ac9"/>
      <rect x="168" y="612" width="16" height="16" fill="#a84ac9"/><rect x="184" y="612" width="16" height="16" fill="#c94a9a"/>
      <rect x="200" y="612" width="16" height="16" fill="#8a8a96"/><rect x="216" y="612" width="16" height="16" fill="#5a5a64"/>
      <rect x="168" y="628" width="16" height="16" fill="#3a3a44"/><rect x="184" y="628" width="16" height="16" fill="#7a6a4a"/>
      <rect x="200" y="628" width="16" height="16" fill="#4a6a7a"/><rect x="216" y="628" width="16" height="16" fill="#9a9a4a"/>
    </g>
    <text x="116" y="660" font-family="monospace" font-size="7" fill="#8a8a98">PALETTE16  16x16 = 64pt  @ col42,row145 (centred) = SHUTTER / per-frame palette</text>

    <!-- ============ BOTTOM: SCRUBBER TRACK + PICK-FOUR (rows 161-189, below Palette16) — ACT III ============ -->
    <!-- 64-wide x 4-tall scrubber: one cell per frame; brightness=that frame's coverage; 4 picked frames marked.
         Region x=72..328 (64 cells x 4pt), y=684..704 (5 rows). -->
    <g id="scrubber">
      <rect x="72" y="684" width="256" height="20" fill="#101016"/>
      <!-- 64 coverage cells -->
      <g>
        <rect x="72" y="688" width="4" height="12" fill="#2a3a4a"/><rect x="76" y="688" width="4" height="12" fill="#32465a"/>
        <rect x="80" y="688" width="4" height="12" fill="#3a526a"/><rect x="84" y="688" width="4" height="12" fill="#445e78"/>
        <rect x="88" y="688" width="4" height="12" fill="#4e6a86"/><rect x="92" y="688" width="4" height="12" fill="#587694"/>
        <rect x="96" y="688" width="4" height="12" fill="#6282a2"/><rect x="100" y="688" width="4" height="12" fill="#6c8eb0"/>
        <rect x="104" y="688" width="4" height="12" fill="#769abe"/><rect x="108" y="688" width="4" height="12" fill="#80a6cc"/>
        <rect x="112" y="688" width="4" height="12" fill="#8ab2da"/><rect x="116" y="688" width="4" height="12" fill="#7aa2cc"/>
        <rect x="120" y="688" width="4" height="12" fill="#6a92be"/><rect x="124" y="688" width="4" height="12" fill="#5a82b0"/>
        <rect x="128" y="688" width="4" height="12" fill="#4a72a2"/><rect x="132" y="688" width="4" height="12" fill="#3a6294"/>
        <rect x="136" y="688" width="4" height="12" fill="#4a72a2"/><rect x="140" y="688" width="4" height="12" fill="#5a82b0"/>
        <rect x="144" y="688" width="4" height="12" fill="#6a92be"/><rect x="148" y="688" width="4" height="12" fill="#7aa2cc"/>
        <rect x="152" y="688" width="4" height="12" fill="#8ab2da"/><rect x="156" y="688" width="4" height="12" fill="#9ac2e8"/>
        <rect x="160" y="688" width="4" height="12" fill="#aad2f6"/><rect x="164" y="688" width="4" height="12" fill="#9ac2e8"/>
        <rect x="168" y="688" width="4" height="12" fill="#8ab2da"/><rect x="172" y="688" width="4" height="12" fill="#7aa2cc"/>
        <rect x="176" y="688" width="4" height="12" fill="#6a92be"/><rect x="180" y="688" width="4" height="12" fill="#5a82b0"/>
        <rect x="184" y="688" width="4" height="12" fill="#4a72a2"/><rect x="188" y="688" width="4" height="12" fill="#3a6294"/>
        <rect x="192" y="688" width="4" height="12" fill="#32567e"/><rect x="196" y="688" width="4" height="12" fill="#2a4a6e"/>
        <rect x="200" y="688" width="4" height="12" fill="#324a6e"/><rect x="204" y="688" width="4" height="12" fill="#3a567e"/>
        <rect x="208" y="688" width="4" height="12" fill="#446294"/><rect x="212" y="688" width="4" height="12" fill="#4e72a2"/>
        <rect x="216" y="688" width="4" height="12" fill="#5882b0"/><rect x="220" y="688" width="4" height="12" fill="#6292be"/>
        <rect x="224" y="688" width="4" height="12" fill="#6ca2cc"/><rect x="228" y="688" width="4" height="12" fill="#76b2da"/>
        <rect x="232" y="688" width="4" height="12" fill="#80c2e8"/><rect x="236" y="688" width="4" height="12" fill="#76b2da"/>
        <rect x="240" y="688" width="4" height="12" fill="#6ca2cc"/><rect x="244" y="688" width="4" height="12" fill="#6292be"/>
        <rect x="248" y="688" width="4" height="12" fill="#5882b0"/><rect x="252" y="688" width="4" height="12" fill="#4e72a2"/>
        <rect x="256" y="688" width="4" height="12" fill="#446294"/><rect x="260" y="688" width="4" height="12" fill="#3a567e"/>
        <rect x="264" y="688" width="4" height="12" fill="#324a6e"/><rect x="268" y="688" width="4" height="12" fill="#2a4060"/>
        <rect x="272" y="688" width="4" height="12" fill="#324a6e"/><rect x="276" y="688" width="4" height="12" fill="#3a567e"/>
        <rect x="280" y="688" width="4" height="12" fill="#446294"/><rect x="284" y="688" width="4" height="12" fill="#4e72a2"/>
        <rect x="288" y="688" width="4" height="12" fill="#5882b0"/><rect x="292" y="688" width="4" height="12" fill="#6292be"/>
        <rect x="296" y="688" width="4" height="12" fill="#6ca2cc"/><rect x="300" y="688" width="4" height="12" fill="#76b2da"/>
        <rect x="304" y="688" width="4" height="12" fill="#6ca2cc"/><rect x="308" y="688" width="4" height="12" fill="#6292be"/>
        <rect x="312" y="688" width="4" height="12" fill="#5882b0"/><rect x="316" y="688" width="4" height="12" fill="#4e72a2"/>
        <rect x="320" y="688" width="4" height="12" fill="#446294"/><rect x="324" y="688" width="4" height="12" fill="#3a567e"/>
      </g>
      <!-- 4 PICKED frame markers (green frames) -->
      <rect x="104" y="686" width="4" height="16" fill="none" stroke="#46c85a" stroke-width="1.5"/>
      <rect x="160" y="686" width="4" height="16" fill="none" stroke="#46c85a" stroke-width="1.5"/>
      <rect x="232" y="686" width="4" height="16" fill="none" stroke="#46c85a" stroke-width="1.5"/>
      <rect x="304" y="686" width="4" height="16" fill="none" stroke="#46c85a" stroke-width="1.5"/>
      <text x="72" y="716" font-family="monospace" font-size="7" fill="#8a8a98">SCRUBBER TRACK  64 cells = per-frame coverage  +  4 picked (green)  ACT III  rows 171-176</text>
    </g>

    <!-- ============ BOTTOM-BAND: GIFC 16^3 MINI-LOOP STRIP (rows 190-200) ============ -->
    <!-- 4 tiny 16x16 GIFC previews (downsample2D mode) showing the loop at a glance.
         Region x=88..312, y=724..788. Each 16x16 at 4pt = 64pt. -->
    <g id="gifc-strip">
      <rect x="88"  y="724" width="48" height="48" fill="#1a2030"/>
      <rect x="148" y="724" width="48" height="48" fill="#241a30"/>
      <rect x="208" y="724" width="48" height="48" fill="#302020"/>
      <rect x="268" y="724" width="48" height="48" fill="#203024"/>
      <text x="88" y="784" font-family="monospace" font-size="7" fill="#8a8a98">GIFC 16^3 MINI-LOOP  4 keyframes  Spec.Export downsample2D  ACT V  rows 181-193</text>
    </g>

    <!-- screen border -->
    <rect x="0.5" y="0.5" width="399" height="871" rx="44" ry="44" fill="none" stroke="#2c2c36" stroke-width="1"/>
  </g>
</svg>
