<?xml version="1.0" encoding="UTF-8" standalone="no"?>
<!DOCTYPE svg PUBLIC "-//W3C//DTD SVG 1.1//EN"
 "http://www.w3.org/Graphics/SVG/1.1/DTD/svg11.dtd">
<!-- Generated by graphviz version 15.0.0 (20260523.1842)
 -->
<!-- Title: SixFourNetworks Pages: 1 -->
<svg width="2117pt" height="719pt"
 viewBox="0.00 0.00 2117.00 719.00" xmlns="http://www.w3.org/2000/svg" xmlns:xlink="http://www.w3.org/1999/xlink">
<g id="graph0" class="graph" transform="scale(1 1) rotate(0) translate(4 714.82)">
<title>SixFourNetworks</title>
<polygon fill="white" stroke="none" points="-4,4 -4,-714.82 2113,-714.82 2113,4 -4,4"/>
<text xml:space="preserve" text-anchor="middle" x="1054.5" y="-696.37" font-family="Helvetica,sans-Serif" font-size="11.00">SixFour neural networks and how they relate (master 623392b). Blue = LIVE I&#45;JEPA core; coral/dashed = LookNet (V2&#45;deferred); green = on&#45;device self&#45;reinforcement; gray = frozen, zero&#45;param.</text>
<g id="clust1" class="cluster">
<title>cluster_frozen</title>
<path fill="#f4f4f4" stroke="#999999" d="M20,-300.5C20,-300.5 404,-300.5 404,-300.5 410,-300.5 416,-306.5 416,-312.5 416,-312.5 416,-564.25 416,-564.25 416,-570.25 410,-576.25 404,-576.25 404,-576.25 20,-576.25 20,-576.25 14,-576.25 8,-570.25 8,-564.25 8,-564.25 8,-312.5 8,-312.5 8,-306.5 14,-300.5 20,-300.5"/>
<text xml:space="preserve" text-anchor="middle" x="212" y="-561.8" font-family="Helvetica,sans-Serif" font-size="11.00">FROZEN SUBSTRATE &#160;(zero params — the I&#45;JEPA tokenizer; bit&#45;exact Zig floor)</text>
</g>
<g id="clust2" class="cluster">
<title>cluster_ijepa</title>
<path fill="#e8f0fc" stroke="#3a6ea5" d="M436,-111C436,-111 1044,-111 1044,-111 1050,-111 1056,-117 1056,-123 1056,-123 1056,-360.5 1056,-360.5 1056,-366.5 1050,-372.5 1044,-372.5 1044,-372.5 436,-372.5 436,-372.5 430,-372.5 424,-366.5 424,-360.5 424,-360.5 424,-123 424,-123 424,-117 430,-111 436,-111"/>
<text xml:space="preserve" text-anchor="middle" x="740" y="-358.05" font-family="Helvetica,sans-Serif" font-size="11.00">I&#45;JEPA HEAD &#160;(LIVE learned core — the current direction)</text>
</g>
<g id="clust3" class="cluster">
<title>cluster_train</title>
<path fill="#eef7ee" stroke="#4a8a4a" d="M1076,-300.5C1076,-300.5 1276,-300.5 1276,-300.5 1282,-300.5 1288,-306.5 1288,-312.5 1288,-312.5 1288,-461.25 1288,-461.25 1288,-467.25 1282,-473.25 1276,-473.25 1276,-473.25 1076,-473.25 1076,-473.25 1070,-473.25 1064,-467.25 1064,-461.25 1064,-461.25 1064,-312.5 1064,-312.5 1064,-306.5 1070,-300.5 1076,-300.5"/>
<text xml:space="preserve" text-anchor="middle" x="1176" y="-458.8" font-family="Helvetica,sans-Serif" font-size="11.00">TRAINING &#160;(spec&#45;forced as of this session)</text>
</g>
<g id="clust4" class="cluster">
<title>cluster_looknet</title>
<path fill="#fbeeee" stroke="#b56b6b" stroke-dasharray="5,2" d="M1308,-208.62C1308,-208.62 1645,-208.62 1645,-208.62 1651,-208.62 1657,-214.62 1657,-220.62 1657,-220.62 1657,-670.82 1657,-670.82 1657,-676.82 1651,-682.82 1645,-682.82 1645,-682.82 1308,-682.82 1308,-682.82 1302,-682.82 1296,-676.82 1296,-670.82 1296,-670.82 1296,-220.63 1296,-220.63 1296,-214.62 1302,-208.62 1308,-208.62"/>
<text xml:space="preserve" text-anchor="middle" x="1476.5" y="-668.37" font-family="Helvetica,sans-Serif" font-size="11.00">LOOKNET FAMILY &#160;(V2&#45;deferred sigma&#45;pair genome MoR transformer)</text>
</g>
<g id="clust5" class="cluster">
<title>cluster_atlas</title>
<path fill="#eef7ee" stroke="#4a8a4a" d="M1677,-300.5C1677,-300.5 2089,-300.5 2089,-300.5 2095,-300.5 2101,-306.5 2101,-312.5 2101,-312.5 2101,-670.82 2101,-670.82 2101,-676.82 2095,-682.82 2089,-682.82 2089,-682.82 1677,-682.82 1677,-682.82 1671,-682.82 1665,-676.82 1665,-670.82 1665,-670.82 1665,-312.5 1665,-312.5 1665,-306.5 1671,-300.5 1677,-300.5"/>
<text xml:space="preserve" text-anchor="middle" x="1883" y="-668.37" font-family="Helvetica,sans-Serif" font-size="11.00">ATLAS — on&#45;device SELF&#45;REINFORCEMENT (MPSGraph, proven on iPhone 17 Pro)</text>
</g>
<g id="clust6" class="cluster">
<title>cluster_deploy</title>
<path fill="#fffbe6" stroke="#b8a73a" d="M678,-8C678,-8 992,-8 992,-8 998,-8 1004,-14 1004,-20 1004,-20 1004,-68 1004,-68 1004,-74 998,-80 992,-80 992,-80 678,-80 678,-80 672,-80 666,-74 666,-68 666,-68 666,-20 666,-20 666,-14 672,-8 678,-8"/>
<text xml:space="preserve" text-anchor="middle" x="835" y="-65.55" font-family="Helvetica,sans-Serif" font-size="11.00">DEPLOY</text>
</g>
<!-- cube -->
<g id="node1" class="node">
<title>cube</title>
<ellipse fill="#eeeeee" stroke="#555555" cx="390" cy="-636.82" rx="58.51" ry="21.57"/>
<text xml:space="preserve" text-anchor="middle" x="390" y="-638.57" font-family="Helvetica,sans-Serif" font-size="10.00">octant cube</text>
<text xml:space="preserve" text-anchor="middle" x="390" y="-627.32" font-family="Helvetica,sans-Serif" font-size="10.00">(8 voxels, Q16)</text>
</g>
<!-- liftOct -->
<g id="node2" class="node">
<title>liftOct</title>
<path fill="#dddddd" stroke="#555555" d="M387.5,-548.25C387.5,-548.25 260.5,-548.25 260.5,-548.25 254.5,-548.25 248.5,-542.25 248.5,-536.25 248.5,-536.25 248.5,-524.25 248.5,-524.25 248.5,-518.25 254.5,-512.25 260.5,-512.25 260.5,-512.25 387.5,-512.25 387.5,-512.25 393.5,-512.25 399.5,-518.25 399.5,-524.25 399.5,-524.25 399.5,-536.25 399.5,-536.25 399.5,-542.25 393.5,-548.25 387.5,-548.25"/>
<text xml:space="preserve" text-anchor="middle" x="324" y="-532" font-family="Helvetica,sans-Serif" font-size="10.00">liftOct &#160;[OctreeCell]</text>
<text xml:space="preserve" text-anchor="middle" x="324" y="-520.75" font-family="Helvetica,sans-Serif" font-size="10.00">reversible 2x2x2 &#45;&gt; 1 + 7 detail</text>
</g>
<!-- cube&#45;&gt;liftOct -->
<g id="edge1" class="edge">
<title>cube&#45;&gt;liftOct</title>
<path fill="none" stroke="#666666" d="M377.12,-615.41C366.26,-598.2 350.69,-573.54 339.22,-555.36"/>
<polygon fill="#666666" stroke="#666666" points="341.5,-554.38 335.69,-549.77 337.35,-557 341.5,-554.38"/>
</g>
<!-- jepaData -->
<g id="node11" class="node">
<title>jepaData</title>
<path fill="#cdeccd" stroke="#555555" d="M1257,-445.25C1257,-445.25 1085,-445.25 1085,-445.25 1079,-445.25 1073,-439.25 1073,-433.25 1073,-433.25 1073,-415.5 1073,-415.5 1073,-409.5 1079,-403.5 1085,-403.5 1085,-403.5 1257,-403.5 1257,-403.5 1263,-403.5 1269,-409.5 1269,-415.5 1269,-415.5 1269,-433.25 1269,-433.25 1269,-439.25 1263,-445.25 1257,-445.25"/>
<text xml:space="preserve" text-anchor="middle" x="1171" y="-431.75" font-family="Helvetica,sans-Serif" font-size="10.00">JepaData &#160;+ &#160;Codegen.JepaData</text>
<text xml:space="preserve" text-anchor="middle" x="1171" y="-420.5" font-family="Helvetica,sans-Serif" font-size="10.00">corpus golden (reconstruct == cube)</text>
<text xml:space="preserve" text-anchor="middle" x="1171" y="-409.25" font-family="Helvetica,sans-Serif" font-size="10.00">&lt;&#45; Python jepa_data.py forced byte&#45;exact</text>
</g>
<!-- cube&#45;&gt;jepaData -->
<g id="edge10" class="edge">
<title>cube&#45;&gt;jepaData</title>
<path fill="none" stroke="#4a8a4a" d="M436.52,-623.28C564.56,-588.78 923.56,-492.05 1087.48,-447.88"/>
<polygon fill="#4a8a4a" stroke="#4a8a4a" points="1088.03,-450.27 1094.15,-446.08 1086.75,-445.54 1088.03,-450.27"/>
<text xml:space="preserve" text-anchor="middle" x="883.19" y="-531.65" font-family="Helvetica,sans-Serif" font-size="8.00">manufacture</text>
<text xml:space="preserve" text-anchor="middle" x="883.19" y="-522.65" font-family="Helvetica,sans-Serif" font-size="8.00">(context,mask,target)</text>
</g>
<!-- bands -->
<g id="node3" class="node">
<title>bands</title>
<ellipse fill="#eeeeee" stroke="#555555" cx="308" cy="-424.38" rx="99.55" ry="18"/>
<text xml:space="preserve" text-anchor="middle" x="308" y="-420.5" font-family="Helvetica,sans-Serif" font-size="10.00">coarse (carrier L) &#160;+ &#160;7 detail bands</text>
</g>
<!-- liftOct&#45;&gt;bands -->
<g id="edge2" class="edge">
<title>liftOct&#45;&gt;bands</title>
<path fill="none" stroke="#666666" d="M321.36,-512.1C318.79,-495.41 314.85,-469.85 311.92,-450.79"/>
<polygon fill="#666666" stroke="#666666" points="314.36,-450.59 310.88,-444.05 309.52,-451.34 314.36,-450.59"/>
</g>
<!-- feats -->
<g id="node4" class="node">
<title>feats</title>
<path fill="#dddddd" stroke="#555555" d="M395.5,-344.5C395.5,-344.5 220.5,-344.5 220.5,-344.5 214.5,-344.5 208.5,-338.5 208.5,-332.5 208.5,-332.5 208.5,-320.5 208.5,-320.5 208.5,-314.5 214.5,-308.5 220.5,-308.5 220.5,-308.5 395.5,-308.5 395.5,-308.5 401.5,-308.5 407.5,-314.5 407.5,-320.5 407.5,-320.5 407.5,-332.5 407.5,-332.5 407.5,-338.5 401.5,-344.5 395.5,-344.5"/>
<text xml:space="preserve" text-anchor="middle" x="308" y="-328.25" font-family="Helvetica,sans-Serif" font-size="10.00">featuresBPos &#160;[MaskedBandPrediction]</text>
<text xml:space="preserve" text-anchor="middle" x="308" y="-317" font-family="Helvetica,sans-Serif" font-size="10.00">parameter&#45;free: coarse + 6 siblings + (x,y)</text>
</g>
<!-- bands&#45;&gt;feats -->
<g id="edge3" class="edge">
<title>bands&#45;&gt;feats</title>
<path fill="none" stroke="#666666" d="M308,-406.23C308,-391.47 308,-369.93 308,-353.12"/>
<polygon fill="#666666" stroke="#666666" points="310.45,-353.33 308,-346.33 305.55,-353.33 310.45,-353.33"/>
</g>
<!-- thetaB -->
<g id="node5" class="node">
<title>thetaB</title>
<path fill="#bcd4f0" stroke="#555555" d="M1036.25,-255.5C1036.25,-255.5 853.75,-255.5 853.75,-255.5 847.75,-255.5 841.75,-249.5 841.75,-243.5 841.75,-243.5 841.75,-225.75 841.75,-225.75 841.75,-219.75 847.75,-213.75 853.75,-213.75 853.75,-213.75 1036.25,-213.75 1036.25,-213.75 1042.25,-213.75 1048.25,-219.75 1048.25,-225.75 1048.25,-225.75 1048.25,-243.5 1048.25,-243.5 1048.25,-249.5 1042.25,-255.5 1036.25,-255.5"/>
<text xml:space="preserve" text-anchor="middle" x="945" y="-242" font-family="Helvetica,sans-Serif" font-size="10.00">theta_B &#160;[MaskedBandPrediction]</text>
<text xml:space="preserve" text-anchor="middle" x="945" y="-230.75" font-family="Helvetica,sans-Serif" font-size="10.00">63&#45;&gt;77 params, the masked&#45;band predictor</text>
<text xml:space="preserve" text-anchor="middle" x="945" y="-219.5" font-family="Helvetica,sans-Serif" font-size="10.00">SHIPS: MaskedBandForward.swift (golden)</text>
</g>
<!-- feats&#45;&gt;thetaB -->
<g id="edge4" class="edge">
<title>feats&#45;&gt;thetaB</title>
<path fill="none" stroke="#666666" d="M379.36,-308.03C392.17,-305.25 405.45,-302.61 418,-300.5 599.66,-270.04 647.6,-281.2 830,-255.5 831.04,-255.35 832.09,-255.2 833.15,-255.05"/>
<polygon fill="#666666" stroke="#666666" points="833.23,-257.52 839.8,-254.07 832.52,-252.67 833.23,-257.52"/>
<text xml:space="preserve" text-anchor="middle" x="640.1" y="-278.9" font-family="Helvetica,sans-Serif" font-size="8.00">predict masked band</text>
</g>
<!-- largeHead -->
<g id="node6" class="node">
<title>largeHead</title>
<path fill="#9ec0ec" stroke="#555555" d="M818.62,-160.75C818.62,-160.75 665.38,-160.75 665.38,-160.75 659.38,-160.75 653.38,-154.75 653.38,-148.75 653.38,-148.75 653.38,-131 653.38,-131 653.38,-125 659.38,-119 665.38,-119 665.38,-119 818.62,-119 818.62,-119 824.62,-119 830.62,-125 830.62,-131 830.62,-131 830.62,-148.75 830.62,-148.75 830.62,-154.75 824.62,-160.75 818.62,-160.75"/>
<text xml:space="preserve" text-anchor="middle" x="742" y="-147.25" font-family="Helvetica,sans-Serif" font-size="10.00">LargeJepaHead</text>
<text xml:space="preserve" text-anchor="middle" x="742" y="-136" font-family="Helvetica,sans-Serif" font-size="10.00">ViT&#45;scale, d6 learnable attention bias</text>
<text xml:space="preserve" text-anchor="middle" x="742" y="-124.75" font-family="Helvetica,sans-Serif" font-size="10.00">reduces to theta_B at depth&#45;1</text>
</g>
<!-- thetaB&#45;&gt;largeHead -->
<g id="edge5" class="edge">
<title>thetaB&#45;&gt;largeHead</title>
<path fill="none" stroke="#3a6ea5" stroke-dasharray="5,2" d="M845.19,-210.69C829.95,-205.47 814.74,-199.21 801,-191.75 786.26,-183.75 771.96,-171.56 761.13,-161.12"/>
<polygon fill="#3a6ea5" stroke="#3a6ea5" points="844.31,-212.97 851.72,-212.85 845.84,-208.32 844.31,-212.97"/>
<text xml:space="preserve" text-anchor="middle" x="832.5" y="-184.15" font-family="Helvetica,sans-Serif" font-size="8.00">depth&#45;1 reduction</text>
</g>
<!-- zig -->
<g id="node23" class="node">
<title>zig</title>
<path fill="#fff2b8" stroke="#555555" d="M983.62,-52C983.62,-52 908.38,-52 908.38,-52 902.38,-52 896.38,-46 896.38,-40 896.38,-40 896.38,-28 896.38,-28 896.38,-22 902.38,-16 908.38,-16 908.38,-16 983.62,-16 983.62,-16 989.62,-16 995.62,-22 995.62,-28 995.62,-28 995.62,-40 995.62,-40 995.62,-46 989.62,-52 983.62,-52"/>
<text xml:space="preserve" text-anchor="middle" x="946" y="-35.75" font-family="Helvetica,sans-Serif" font-size="10.00">Zig Q16 floor</text>
<text xml:space="preserve" text-anchor="middle" x="946" y="-24.5" font-family="Helvetica,sans-Serif" font-size="10.00">(bit&#45;exact, shipped)</text>
</g>
<!-- thetaB&#45;&gt;zig -->
<g id="edge22" class="edge">
<title>thetaB&#45;&gt;zig</title>
<path fill="none" stroke="#b8a73a" d="M945.1,-213.49C945.28,-177.18 945.67,-100.8 945.87,-60.75"/>
<polygon fill="#b8a73a" stroke="#b8a73a" points="948.32,-60.85 945.91,-53.83 943.42,-60.82 948.32,-60.85"/>
<text xml:space="preserve" text-anchor="middle" x="986.12" y="-136.78" font-family="Helvetica,sans-Serif" font-size="8.00">forward (hand&#45;written)</text>
</g>
<!-- coreai -->
<g id="node24" class="node">
<title>coreai</title>
<path fill="#fff2b8" stroke="#555555" d="M859.75,-52C859.75,-52 686.25,-52 686.25,-52 680.25,-52 674.25,-46 674.25,-40 674.25,-40 674.25,-28 674.25,-28 674.25,-22 680.25,-16 686.25,-16 686.25,-16 859.75,-16 859.75,-16 865.75,-16 871.75,-22 871.75,-28 871.75,-28 871.75,-40 871.75,-40 871.75,-46 865.75,-52 859.75,-52"/>
<text xml:space="preserve" text-anchor="middle" x="773" y="-35.75" font-family="Helvetica,sans-Serif" font-size="10.00">Core AI</text>
<text xml:space="preserve" text-anchor="middle" x="773" y="-24.5" font-family="Helvetica,sans-Serif" font-size="10.00">(large head inference, float &#45;&gt; reenterQ16)</text>
</g>
<!-- thetaB&#45;&gt;coreai -->
<!-- largeHead&#45;&gt;coreai -->
<g id="edge23" class="edge">
<title>largeHead&#45;&gt;coreai</title>
<path fill="none" stroke="#b8a73a" d="M747.98,-118.85C752.98,-102.08 760.15,-78.06 765.53,-60.03"/>
<polygon fill="#b8a73a" stroke="#b8a73a" points="767.78,-61.07 767.43,-53.66 763.08,-59.67 767.78,-61.07"/>
<text xml:space="preserve" text-anchor="middle" x="801.57" y="-89.4" font-family="Helvetica,sans-Serif" font-size="8.00">MLX&#45;train &#45;&gt; coreai&#45;torch</text>
</g>
<!-- d6 -->
<g id="node7" class="node">
<title>d6</title>
<path fill="#cfe0f7" stroke="#555555" d="M601.5,-252.62C601.5,-252.62 444.5,-252.62 444.5,-252.62 438.5,-252.62 432.5,-246.62 432.5,-240.62 432.5,-240.62 432.5,-228.62 432.5,-228.62 432.5,-222.62 438.5,-216.62 444.5,-216.62 444.5,-216.62 601.5,-216.62 601.5,-216.62 607.5,-216.62 613.5,-222.62 613.5,-228.62 613.5,-228.62 613.5,-240.62 613.5,-240.62 613.5,-246.62 607.5,-252.62 601.5,-252.62"/>
<text xml:space="preserve" text-anchor="middle" x="523" y="-236.38" font-family="Helvetica,sans-Serif" font-size="10.00">RelationalMemory.d6</text>
<text xml:space="preserve" text-anchor="middle" x="523" y="-225.12" font-family="Helvetica,sans-Serif" font-size="10.00">the metric = attention ground&#45;distance</text>
</g>
<!-- d6&#45;&gt;largeHead -->
<g id="edge6" class="edge">
<title>d6&#45;&gt;largeHead</title>
<path fill="none" stroke="#3a6ea5" d="M564.19,-216.18C598.81,-201.52 648.59,-180.44 686.68,-164.31"/>
<polygon fill="#3a6ea5" stroke="#3a6ea5" points="687.25,-166.72 692.74,-161.74 685.33,-162.21 687.25,-166.72"/>
<text xml:space="preserve" text-anchor="middle" x="663.82" y="-184.15" font-family="Helvetica,sans-Serif" font-size="8.00">learnable bias</text>
</g>
<!-- target -->
<g id="node8" class="node">
<title>target</title>
<path fill="#cfe0f7" stroke="#555555" d="M828,-344.5C828,-344.5 638,-344.5 638,-344.5 632,-344.5 626,-338.5 626,-332.5 626,-332.5 626,-320.5 626,-320.5 626,-314.5 632,-308.5 638,-308.5 638,-308.5 828,-308.5 828,-308.5 834,-308.5 840,-314.5 840,-320.5 840,-320.5 840,-332.5 840,-332.5 840,-338.5 834,-344.5 828,-344.5"/>
<text xml:space="preserve" text-anchor="middle" x="733" y="-328.25" font-family="Helvetica,sans-Serif" font-size="10.00">JepaTarget</text>
<text xml:space="preserve" text-anchor="middle" x="733" y="-317" font-family="Helvetica,sans-Serif" font-size="10.00">manufactured target (no EMA, collapse&#45;proof)</text>
</g>
<!-- target&#45;&gt;thetaB -->
<g id="edge7" class="edge">
<title>target&#45;&gt;thetaB</title>
<path fill="none" stroke="#3a6ea5" d="M774.13,-308.06C806.95,-294.15 853.26,-274.52 889.39,-259.2"/>
<polygon fill="#3a6ea5" stroke="#3a6ea5" points="890.06,-261.58 895.55,-256.59 888.15,-257.07 890.06,-261.58"/>
<text xml:space="preserve" text-anchor="middle" x="862.98" y="-278.9" font-family="Helvetica,sans-Serif" font-size="8.00">latent loss</text>
</g>
<!-- deferred -->
<g id="node9" class="node">
<title>deferred</title>
<path fill="#cfe0f7" stroke="#555555" d="M1028.5,-344.5C1028.5,-344.5 877.5,-344.5 877.5,-344.5 871.5,-344.5 865.5,-338.5 865.5,-332.5 865.5,-332.5 865.5,-320.5 865.5,-320.5 865.5,-314.5 871.5,-308.5 877.5,-308.5 877.5,-308.5 1028.5,-308.5 1028.5,-308.5 1034.5,-308.5 1040.5,-314.5 1040.5,-320.5 1040.5,-320.5 1040.5,-332.5 1040.5,-332.5 1040.5,-338.5 1034.5,-344.5 1028.5,-344.5"/>
<text xml:space="preserve" text-anchor="middle" x="953" y="-328.25" font-family="Helvetica,sans-Serif" font-size="10.00">DeferredSurfacing</text>
<text xml:space="preserve" text-anchor="middle" x="953" y="-317" font-family="Helvetica,sans-Serif" font-size="10.00">two&#45;rung latent search, surface once</text>
</g>
<!-- deferred&#45;&gt;thetaB -->
<g id="edge8" class="edge">
<title>deferred&#45;&gt;thetaB</title>
<path fill="none" stroke="#3a6ea5" stroke-dasharray="1,5" d="M951.46,-308.17C950.34,-295.63 948.81,-278.42 947.52,-263.9"/>
<polygon fill="#3a6ea5" stroke="#3a6ea5" points="949.98,-263.99 946.92,-257.23 945.1,-264.42 949.98,-263.99"/>
<text xml:space="preserve" text-anchor="middle" x="972.35" y="-278.9" font-family="Helvetica,sans-Serif" font-size="8.00">surface once</text>
</g>
<!-- vicreg -->
<g id="node10" class="node">
<title>vicreg</title>
<path fill="#cfe0f7" stroke="#555555" d="M805,-252.62C805,-252.62 651,-252.62 651,-252.62 645,-252.62 639,-246.62 639,-240.62 639,-240.62 639,-228.62 639,-228.62 639,-222.62 645,-216.62 651,-216.62 651,-216.62 805,-216.62 805,-216.62 811,-216.62 817,-222.62 817,-228.62 817,-228.62 817,-240.62 817,-240.62 817,-246.62 811,-252.62 805,-252.62"/>
<text xml:space="preserve" text-anchor="middle" x="728" y="-236.38" font-family="Helvetica,sans-Serif" font-size="10.00">NeuronRedundancy (VICReg)</text>
<text xml:space="preserve" text-anchor="middle" x="728" y="-225.12" font-family="Helvetica,sans-Serif" font-size="10.00">collapse guard (load&#45;bearing at scale)</text>
</g>
<!-- vicreg&#45;&gt;largeHead -->
<g id="edge9" class="edge">
<title>vicreg&#45;&gt;largeHead</title>
<path fill="none" stroke="#3a6ea5" stroke-dasharray="1,5" d="M725.9,-216.54C725.1,-206.61 724.79,-193.89 726.75,-182.75 727.56,-178.18 728.82,-173.45 730.29,-168.89"/>
<polygon fill="#3a6ea5" stroke="#3a6ea5" points="732.57,-169.77 732.59,-162.36 727.95,-168.15 732.57,-169.77"/>
<text xml:space="preserve" text-anchor="middle" x="748.88" y="-184.15" font-family="Helvetica,sans-Serif" font-size="8.00">anti&#45;collapse</text>
</g>
<!-- trainer -->
<g id="node12" class="node">
<title>trainer</title>
<path fill="#cdeccd" stroke="#555555" d="M1261.62,-344.5C1261.62,-344.5 1084.38,-344.5 1084.38,-344.5 1078.38,-344.5 1072.38,-338.5 1072.38,-332.5 1072.38,-332.5 1072.38,-320.5 1072.38,-320.5 1072.38,-314.5 1078.38,-308.5 1084.38,-308.5 1084.38,-308.5 1261.62,-308.5 1261.62,-308.5 1267.62,-308.5 1273.62,-314.5 1273.62,-320.5 1273.62,-320.5 1273.62,-332.5 1273.62,-332.5 1273.62,-338.5 1267.62,-344.5 1261.62,-344.5"/>
<text xml:space="preserve" text-anchor="middle" x="1173" y="-328.25" font-family="Helvetica,sans-Serif" font-size="10.00">MaskedBandTrainer</text>
<text xml:space="preserve" text-anchor="middle" x="1173" y="-317" font-family="Helvetica,sans-Serif" font-size="10.00">trainBandJoint descent &#45;&gt; theta_B weights</text>
</g>
<!-- jepaData&#45;&gt;trainer -->
<g id="edge11" class="edge">
<title>jepaData&#45;&gt;trainer</title>
<path fill="none" stroke="#4a8a4a" d="M1171.42,-403.04C1171.73,-388.48 1172.14,-368.76 1172.47,-353.12"/>
<polygon fill="#4a8a4a" stroke="#4a8a4a" points="1174.91,-353.47 1172.61,-346.42 1170.01,-353.37 1174.91,-353.47"/>
</g>
<!-- trainer&#45;&gt;thetaB -->
<g id="edge12" class="edge">
<title>trainer&#45;&gt;thetaB</title>
<path fill="none" stroke="#4a8a4a" stroke-width="1.6" d="M1128.77,-308.06C1093.61,-294.21 1044.08,-274.68 1005.29,-259.39"/>
<polygon fill="#4a8a4a" stroke="#4a8a4a" stroke-width="1.6" points="1006.35,-257.17 998.94,-256.89 1004.55,-261.73 1006.35,-257.17"/>
<text xml:space="preserve" text-anchor="middle" x="1099.65" y="-278.9" font-family="Helvetica,sans-Serif" font-size="8.00">trained weights</text>
</g>
<!-- palettes -->
<g id="node13" class="node">
<title>palettes</title>
<ellipse fill="#f3dede" stroke="#555555" cx="1540" cy="-636.82" rx="64.05" ry="18"/>
<text xml:space="preserve" text-anchor="middle" x="1540" y="-632.94" font-family="Helvetica,sans-Serif" font-size="10.00">64 per&#45;frame palettes</text>
</g>
<!-- lnE -->
<g id="node14" class="node">
<title>lnE</title>
<path fill="#f0cccc" stroke="#555555" stroke-dasharray="5,2" d="M1636.88,-548.25C1636.88,-548.25 1443.12,-548.25 1443.12,-548.25 1437.12,-548.25 1431.12,-542.25 1431.12,-536.25 1431.12,-536.25 1431.12,-524.25 1431.12,-524.25 1431.12,-518.25 1437.12,-512.25 1443.12,-512.25 1443.12,-512.25 1636.88,-512.25 1636.88,-512.25 1642.88,-512.25 1648.88,-518.25 1648.88,-524.25 1648.88,-524.25 1648.88,-536.25 1648.88,-536.25 1648.88,-542.25 1642.88,-548.25 1636.88,-548.25"/>
<text xml:space="preserve" text-anchor="middle" x="1540" y="-532" font-family="Helvetica,sans-Serif" font-size="10.00">LookNetE</text>
<text xml:space="preserve" text-anchor="middle" x="1540" y="-520.75" font-family="Helvetica,sans-Serif" font-size="10.00">Encoder (set &#45;&gt; sigma&#45;equivariant context, L3)</text>
</g>
<!-- palettes&#45;&gt;lnE -->
<g id="edge13" class="edge">
<title>palettes&#45;&gt;lnE</title>
<path fill="none" stroke="#b56b6b" stroke-dasharray="5,2" d="M1540,-618.55C1540,-601.75 1540,-576.02 1540,-556.84"/>
<polygon fill="#b56b6b" stroke="#b56b6b" points="1542.45,-557.06 1540,-550.06 1537.55,-557.06 1542.45,-557.06"/>
</g>
<!-- lnR -->
<g id="node15" class="node">
<title>lnR</title>
<path fill="#f0cccc" stroke="#555555" stroke-dasharray="5,2" d="M1629.75,-442.38C1629.75,-442.38 1450.25,-442.38 1450.25,-442.38 1444.25,-442.38 1438.25,-436.38 1438.25,-430.38 1438.25,-430.38 1438.25,-418.38 1438.25,-418.38 1438.25,-412.38 1444.25,-406.38 1450.25,-406.38 1450.25,-406.38 1629.75,-406.38 1629.75,-406.38 1635.75,-406.38 1641.75,-412.38 1641.75,-418.38 1641.75,-418.38 1641.75,-430.38 1641.75,-430.38 1641.75,-436.38 1635.75,-442.38 1629.75,-442.38"/>
<text xml:space="preserve" text-anchor="middle" x="1540" y="-426.12" font-family="Helvetica,sans-Serif" font-size="10.00">LookNetR</text>
<text xml:space="preserve" text-anchor="middle" x="1540" y="-414.88" font-family="Helvetica,sans-Serif" font-size="10.00">Recursion core (Mixture&#45;of&#45;Recursions, L4)</text>
</g>
<!-- lnE&#45;&gt;lnR -->
<g id="edge14" class="edge">
<title>lnE&#45;&gt;lnR</title>
<path fill="none" stroke="#b56b6b" stroke-dasharray="5,2" d="M1540,-512.1C1540,-495.48 1540,-470.08 1540,-451.05"/>
<polygon fill="#b56b6b" stroke="#b56b6b" points="1542.45,-451.07 1540,-444.07 1537.55,-451.07 1542.45,-451.07"/>
</g>
<!-- atlasNet -->
<g id="node18" class="node">
<title>atlasNet</title>
<path fill="#cdeccd" stroke="#555555" d="M1893,-442.38C1893,-442.38 1685,-442.38 1685,-442.38 1679,-442.38 1673,-436.38 1673,-430.38 1673,-430.38 1673,-418.38 1673,-418.38 1673,-412.38 1679,-406.38 1685,-406.38 1685,-406.38 1893,-406.38 1893,-406.38 1899,-406.38 1905,-412.38 1905,-418.38 1905,-418.38 1905,-430.38 1905,-430.38 1905,-436.38 1899,-442.38 1893,-442.38"/>
<text xml:space="preserve" text-anchor="middle" x="1789" y="-426.12" font-family="Helvetica,sans-Serif" font-size="10.00">AtlasNetEval</text>
<text xml:space="preserve" text-anchor="middle" x="1789" y="-414.88" font-family="Helvetica,sans-Serif" font-size="10.00">policy + value forward (reuses LookNetE context)</text>
</g>
<!-- lnE&#45;&gt;atlasNet -->
<g id="edge17" class="edge">
<title>lnE&#45;&gt;atlasNet</title>
<path fill="none" stroke="#b56b6b" stroke-dasharray="1,5" d="M1581.68,-511.86C1625.13,-493.74 1693.21,-465.34 1739.4,-446.07"/>
<polygon fill="#b56b6b" stroke="#b56b6b" points="1740.27,-448.36 1745.79,-443.4 1738.39,-443.83 1740.27,-448.36"/>
<text xml:space="preserve" text-anchor="middle" x="1675.47" y="-482.65" font-family="Helvetica,sans-Serif" font-size="8.00">reuses context</text>
</g>
<!-- lnD -->
<g id="node16" class="node">
<title>lnD</title>
<path fill="#f0cccc" stroke="#555555" stroke-dasharray="5,2" d="M1634.25,-344.5C1634.25,-344.5 1445.75,-344.5 1445.75,-344.5 1439.75,-344.5 1433.75,-338.5 1433.75,-332.5 1433.75,-332.5 1433.75,-320.5 1433.75,-320.5 1433.75,-314.5 1439.75,-308.5 1445.75,-308.5 1445.75,-308.5 1634.25,-308.5 1634.25,-308.5 1640.25,-308.5 1646.25,-314.5 1646.25,-320.5 1646.25,-320.5 1646.25,-332.5 1646.25,-332.5 1646.25,-338.5 1640.25,-344.5 1634.25,-344.5"/>
<text xml:space="preserve" text-anchor="middle" x="1540" y="-328.25" font-family="Helvetica,sans-Serif" font-size="10.00">LookNetD</text>
<text xml:space="preserve" text-anchor="middle" x="1540" y="-317" font-family="Helvetica,sans-Serif" font-size="10.00">Decoder &#45;&gt; 384&#45;DOF sigma&#45;pair genome (L5)</text>
</g>
<!-- lnR&#45;&gt;lnD -->
<g id="edge15" class="edge">
<title>lnR&#45;&gt;lnD</title>
<path fill="none" stroke="#b56b6b" stroke-dasharray="5,2" d="M1540,-406.23C1540,-391.47 1540,-369.93 1540,-353.12"/>
<polygon fill="#b56b6b" stroke="#b56b6b" points="1542.45,-353.33 1540,-346.33 1537.55,-353.33 1542.45,-353.33"/>
</g>
<!-- lnLoss -->
<g id="node17" class="node">
<title>lnLoss</title>
<path fill="#f3dede" stroke="#555555" stroke-dasharray="5,2" d="M1612.5,-252.62C1612.5,-252.62 1467.5,-252.62 1467.5,-252.62 1461.5,-252.62 1455.5,-246.62 1455.5,-240.62 1455.5,-240.62 1455.5,-228.62 1455.5,-228.62 1455.5,-222.62 1461.5,-216.62 1467.5,-216.62 1467.5,-216.62 1612.5,-216.62 1612.5,-216.62 1618.5,-216.62 1624.5,-222.62 1624.5,-228.62 1624.5,-228.62 1624.5,-240.62 1624.5,-240.62 1624.5,-246.62 1618.5,-252.62 1612.5,-252.62"/>
<text xml:space="preserve" text-anchor="middle" x="1540" y="-236.38" font-family="Helvetica,sans-Serif" font-size="10.00">Loss (OT / reconstruction)</text>
<text xml:space="preserve" text-anchor="middle" x="1540" y="-225.12" font-family="Helvetica,sans-Serif" font-size="10.00">Net: pinned shapes &#45;&gt; NetContract</text>
</g>
<!-- lnD&#45;&gt;lnLoss -->
<g id="edge16" class="edge">
<title>lnD&#45;&gt;lnLoss</title>
<path fill="none" stroke="#b56b6b" stroke-dasharray="5,2" d="M1540,-308.17C1540,-294.87 1540,-276.29 1540,-261.27"/>
<polygon fill="#b56b6b" stroke="#b56b6b" points="1542.45,-261.41 1540,-254.41 1537.55,-261.41 1542.45,-261.41"/>
</g>
<!-- search -->
<g id="node22" class="node">
<title>search</title>
<path fill="#dff0df" stroke="#555555" d="M1852.5,-344.5C1852.5,-344.5 1725.5,-344.5 1725.5,-344.5 1719.5,-344.5 1713.5,-338.5 1713.5,-332.5 1713.5,-332.5 1713.5,-320.5 1713.5,-320.5 1713.5,-314.5 1719.5,-308.5 1725.5,-308.5 1725.5,-308.5 1852.5,-308.5 1852.5,-308.5 1858.5,-308.5 1864.5,-314.5 1864.5,-320.5 1864.5,-320.5 1864.5,-332.5 1864.5,-332.5 1864.5,-338.5 1858.5,-344.5 1852.5,-344.5"/>
<text xml:space="preserve" text-anchor="middle" x="1789" y="-328.25" font-family="Helvetica,sans-Serif" font-size="10.00">PaletteSearch / GumbelSearch</text>
<text xml:space="preserve" text-anchor="middle" x="1789" y="-317" font-family="Helvetica,sans-Serif" font-size="10.00">search over scored candidates</text>
</g>
<!-- atlasNet&#45;&gt;search -->
<g id="edge20" class="edge">
<title>atlasNet&#45;&gt;search</title>
<path fill="none" stroke="#4a8a4a" d="M1789,-406.23C1789,-391.47 1789,-369.93 1789,-353.12"/>
<polygon fill="#4a8a4a" stroke="#4a8a4a" points="1791.45,-353.33 1789,-346.33 1786.55,-353.33 1791.45,-353.33"/>
</g>
<!-- valueHead -->
<g id="node19" class="node">
<title>valueHead</title>
<path fill="#dff0df" stroke="#555555" d="M1802.5,-548.25C1802.5,-548.25 1693.5,-548.25 1693.5,-548.25 1687.5,-548.25 1681.5,-542.25 1681.5,-536.25 1681.5,-536.25 1681.5,-524.25 1681.5,-524.25 1681.5,-518.25 1687.5,-512.25 1693.5,-512.25 1693.5,-512.25 1802.5,-512.25 1802.5,-512.25 1808.5,-512.25 1814.5,-518.25 1814.5,-524.25 1814.5,-524.25 1814.5,-536.25 1814.5,-536.25 1814.5,-542.25 1808.5,-548.25 1802.5,-548.25"/>
<text xml:space="preserve" text-anchor="middle" x="1748" y="-526.38" font-family="Helvetica,sans-Serif" font-size="10.00">ValueHead &#160;(learned value)</text>
</g>
<!-- valueHead&#45;&gt;atlasNet -->
<g id="edge19" class="edge">
<title>valueHead&#45;&gt;atlasNet</title>
<path fill="none" stroke="#4a8a4a" d="M1754.77,-512.1C1761.42,-495.26 1771.63,-469.39 1779.17,-450.28"/>
<polygon fill="#4a8a4a" stroke="#4a8a4a" points="1781.37,-451.37 1781.66,-443.96 1776.81,-449.57 1781.37,-451.37"/>
</g>
<!-- oracle -->
<g id="node20" class="node">
<title>oracle</title>
<path fill="#dff0df" stroke="#555555" d="M1893,-654.82C1893,-654.82 1685,-654.82 1685,-654.82 1679,-654.82 1673,-648.82 1673,-642.82 1673,-642.82 1673,-630.82 1673,-630.82 1673,-624.82 1679,-618.82 1685,-618.82 1685,-618.82 1893,-618.82 1893,-618.82 1899,-618.82 1905,-624.82 1905,-630.82 1905,-630.82 1905,-642.82 1905,-642.82 1905,-648.82 1899,-654.82 1893,-654.82"/>
<text xml:space="preserve" text-anchor="middle" x="1789" y="-638.57" font-family="Helvetica,sans-Serif" font-size="10.00">PaletteOracle</text>
<text xml:space="preserve" text-anchor="middle" x="1789" y="-627.32" font-family="Helvetica,sans-Serif" font-size="10.00">deterministic REWARD target (Ou&#45;Luo + entropy)</text>
</g>
<!-- oracle&#45;&gt;valueHead -->
<g id="edge18" class="edge">
<title>oracle&#45;&gt;valueHead</title>
<path fill="none" stroke="#4a8a4a" d="M1782.23,-618.55C1775.58,-601.6 1765.37,-575.55 1757.83,-556.32"/>
<polygon fill="#4a8a4a" stroke="#4a8a4a" points="1760.17,-555.57 1755.33,-549.95 1755.61,-557.36 1760.17,-555.57"/>
<text xml:space="preserve" text-anchor="middle" x="1796.55" y="-585.65" font-family="Helvetica,sans-Serif" font-size="8.00">reward target</text>
</g>
<!-- pref -->
<g id="node21" class="node">
<title>pref</title>
<path fill="#cdeccd" stroke="#555555" d="M2080.5,-548.25C2080.5,-548.25 1851.5,-548.25 1851.5,-548.25 1845.5,-548.25 1839.5,-542.25 1839.5,-536.25 1839.5,-536.25 1839.5,-524.25 1839.5,-524.25 1839.5,-518.25 1845.5,-512.25 1851.5,-512.25 1851.5,-512.25 2080.5,-512.25 2080.5,-512.25 2086.5,-512.25 2092.5,-518.25 2092.5,-524.25 2092.5,-524.25 2092.5,-536.25 2092.5,-536.25 2092.5,-542.25 2086.5,-548.25 2080.5,-548.25"/>
<text xml:space="preserve" text-anchor="middle" x="1966" y="-532" font-family="Helvetica,sans-Serif" font-size="10.00">PreferenceUpdate</text>
<text xml:space="preserve" text-anchor="middle" x="1966" y="-520.75" font-family="Helvetica,sans-Serif" font-size="10.00">Bradley&#45;Terry from user A/B picks &#45;&gt; PersonalGenome</text>
</g>
<!-- pref&#45;&gt;atlasNet -->
<g id="edge21" class="edge">
<title>pref&#45;&gt;atlasNet</title>
<path fill="none" stroke="#4a8a4a" stroke-width="1.6" d="M1905.93,-511.82C1890.33,-506.07 1873.93,-498.89 1859.75,-490.25 1841.57,-479.18 1823.92,-463 1810.79,-449.58"/>
<polygon fill="#4a8a4a" stroke="#4a8a4a" stroke-width="1.6" points="1812.64,-447.97 1806.04,-444.6 1809.1,-451.35 1812.64,-447.97"/>
<text xml:space="preserve" text-anchor="middle" x="1895.38" y="-482.65" font-family="Helvetica,sans-Serif" font-size="8.00">A/B picks &#45;&gt; weights</text>
</g>
<!-- search&#45;&gt;pref -->
<g id="edge25" class="edge">
<title>search&#45;&gt;pref</title>
<path fill="none" stroke="#cc5500" stroke-width="1.8" d="M1834.27,-344.99C1861.74,-357.61 1895.69,-377.09 1918,-403.5 1942.45,-432.43 1955.18,-475.14 1961.23,-502.58"/>
<polygon fill="#cc5500" stroke="#cc5500" stroke-width="1.8" points="1958.8,-502.92 1962.62,-509.28 1963.6,-501.93 1958.8,-502.92"/>
<text xml:space="preserve" text-anchor="middle" x="1994.97" y="-421.27" font-family="Helvetica,sans-Serif" font-size="8.00" fill="#cc5500">user A/B pick (the loop)</text>
</g>
</g>
</svg>
